<mxfile host="app.diagrams.net" modified="2021-10-04T12:17:24.206Z" agent="5.0 (Windows NT 10.0; Win64; x64) AppleWebKit/537.36 (KHTML, like Gecko) Chrome/94.0.4606.61 Safari/537.36" etag="aHqiaP5ElVRBxYqja2GW" version="15.4.1" type="github">
  <diagram id="y-EOfLyRayrffuNytPgW" name="Page-1">
    <mxGraphModel dx="1182" dy="764" grid="1" gridSize="10" guides="1" tooltips="1" connect="1" arrows="1" fold="1" page="1" pageScale="1" pageWidth="827" pageHeight="1169" math="0" shadow="0">
      <root>
        <mxCell id="0" />
        <mxCell id="1" parent="0" />
        <mxCell id="BDkGL1UXGUK9MqZ0ccRs-2" value="서버" style="rounded=0;whiteSpace=wrap;html=1;verticalAlign=top;" parent="1" vertex="1">
          <mxGeometry x="190" y="20" width="720" height="750" as="geometry" />
        </mxCell>
        <mxCell id="It_J201JycvOayyEyo5P-18" value="텍사스 홀덤 게임" style="rounded=0;whiteSpace=wrap;html=1;verticalAlign=top;" vertex="1" parent="1">
          <mxGeometry x="200" y="230" width="700" height="530" as="geometry" />
        </mxCell>
        <mxCell id="XDTb-5lJ9CkzeO3RCMUf-7" style="edgeStyle=orthogonalEdgeStyle;rounded=0;orthogonalLoop=1;jettySize=auto;html=1;entryX=0;entryY=0.5;entryDx=0;entryDy=0;" parent="1" source="BDkGL1UXGUK9MqZ0ccRs-15" target="XDTb-5lJ9CkzeO3RCMUf-2" edge="1">
          <mxGeometry relative="1" as="geometry" />
        </mxCell>
        <mxCell id="XDTb-5lJ9CkzeO3RCMUf-8" style="edgeStyle=orthogonalEdgeStyle;rounded=0;orthogonalLoop=1;jettySize=auto;html=1;entryX=0;entryY=0.5;entryDx=0;entryDy=0;" parent="1" source="BDkGL1UXGUK9MqZ0ccRs-15" target="XDTb-5lJ9CkzeO3RCMUf-3" edge="1">
          <mxGeometry relative="1" as="geometry" />
        </mxCell>
        <mxCell id="It_J201JycvOayyEyo5P-4" style="edgeStyle=orthogonalEdgeStyle;rounded=0;orthogonalLoop=1;jettySize=auto;html=1;exitX=0.5;exitY=0.5;exitDx=0;exitDy=0;exitPerimeter=0;entryX=0;entryY=0.5;entryDx=0;entryDy=0;" edge="1" parent="1" source="BDkGL1UXGUK9MqZ0ccRs-15" target="It_J201JycvOayyEyo5P-2">
          <mxGeometry relative="1" as="geometry" />
        </mxCell>
        <mxCell id="It_J201JycvOayyEyo5P-8" style="edgeStyle=orthogonalEdgeStyle;rounded=0;orthogonalLoop=1;jettySize=auto;html=1;exitX=0.5;exitY=0;exitDx=0;exitDy=0;exitPerimeter=0;" edge="1" parent="1" source="BDkGL1UXGUK9MqZ0ccRs-15">
          <mxGeometry relative="1" as="geometry">
            <mxPoint x="135" y="160" as="targetPoint" />
          </mxGeometry>
        </mxCell>
        <mxCell id="It_J201JycvOayyEyo5P-20" style="edgeStyle=orthogonalEdgeStyle;rounded=0;orthogonalLoop=1;jettySize=auto;html=1;exitX=0.5;exitY=0.5;exitDx=0;exitDy=0;exitPerimeter=0;entryX=0;entryY=0.5;entryDx=0;entryDy=0;" edge="1" parent="1" source="BDkGL1UXGUK9MqZ0ccRs-15" target="It_J201JycvOayyEyo5P-19">
          <mxGeometry relative="1" as="geometry" />
        </mxCell>
        <mxCell id="It_J201JycvOayyEyo5P-24" style="edgeStyle=orthogonalEdgeStyle;rounded=0;orthogonalLoop=1;jettySize=auto;html=1;exitX=0.5;exitY=0.5;exitDx=0;exitDy=0;exitPerimeter=0;entryX=0;entryY=0.5;entryDx=0;entryDy=0;" edge="1" parent="1" source="BDkGL1UXGUK9MqZ0ccRs-15" target="It_J201JycvOayyEyo5P-23">
          <mxGeometry relative="1" as="geometry" />
        </mxCell>
        <mxCell id="BDkGL1UXGUK9MqZ0ccRs-15" value="플레이어" style="shape=umlActor;verticalLabelPosition=bottom;verticalAlign=top;html=1;outlineConnect=0;" parent="1" vertex="1">
          <mxGeometry x="120" y="410" width="30" height="60" as="geometry" />
        </mxCell>
        <mxCell id="eUcnEjtrqgw-609uE-4Z-12" value="" style="edgeStyle=orthogonalEdgeStyle;rounded=0;orthogonalLoop=1;jettySize=auto;html=1;endArrow=classic;endFill=1;exitX=0.5;exitY=0.5;exitDx=0;exitDy=0;exitPerimeter=0;entryX=0.5;entryY=0;entryDx=0;entryDy=0;" parent="1" source="It_J201JycvOayyEyo5P-5" target="FhCvCFaldwQa_D8-2yYc-1" edge="1">
          <mxGeometry relative="1" as="geometry">
            <mxPoint x="320" y="160" as="sourcePoint" />
            <Array as="points">
              <mxPoint x="757" y="100" />
            </Array>
          </mxGeometry>
        </mxCell>
        <mxCell id="FhCvCFaldwQa_D8-2yYc-1" value="게임 참석" style="ellipse;whiteSpace=wrap;html=1;" parent="1" vertex="1">
          <mxGeometry x="697" y="130" width="120" height="80" as="geometry" />
        </mxCell>
        <mxCell id="XDTb-5lJ9CkzeO3RCMUf-2" value="배팅금액 결정하기 (레이즈)" style="ellipse;whiteSpace=wrap;html=1;" parent="1" vertex="1">
          <mxGeometry x="354" y="270" width="120" height="80" as="geometry" />
        </mxCell>
        <mxCell id="XDTb-5lJ9CkzeO3RCMUf-3" value="콜" style="ellipse;whiteSpace=wrap;html=1;" parent="1" vertex="1">
          <mxGeometry x="354" y="360" width="120" height="80" as="geometry" />
        </mxCell>
        <mxCell id="It_J201JycvOayyEyo5P-2" value="폴드" style="ellipse;whiteSpace=wrap;html=1;" vertex="1" parent="1">
          <mxGeometry x="354" y="460" width="120" height="80" as="geometry" />
        </mxCell>
        <mxCell id="It_J201JycvOayyEyo5P-13" style="edgeStyle=orthogonalEdgeStyle;rounded=0;orthogonalLoop=1;jettySize=auto;html=1;exitX=0.5;exitY=0.5;exitDx=0;exitDy=0;exitPerimeter=0;entryX=0.5;entryY=0;entryDx=0;entryDy=0;" edge="1" parent="1" source="It_J201JycvOayyEyo5P-5" target="It_J201JycvOayyEyo5P-12">
          <mxGeometry relative="1" as="geometry" />
        </mxCell>
        <mxCell id="It_J201JycvOayyEyo5P-15" style="edgeStyle=orthogonalEdgeStyle;rounded=0;orthogonalLoop=1;jettySize=auto;html=1;exitX=0.5;exitY=0.5;exitDx=0;exitDy=0;exitPerimeter=0;entryX=0.5;entryY=0;entryDx=0;entryDy=0;" edge="1" parent="1" source="It_J201JycvOayyEyo5P-5" target="It_J201JycvOayyEyo5P-14">
          <mxGeometry relative="1" as="geometry" />
        </mxCell>
        <mxCell id="It_J201JycvOayyEyo5P-17" style="edgeStyle=orthogonalEdgeStyle;rounded=0;orthogonalLoop=1;jettySize=auto;html=1;exitX=0.5;exitY=0.5;exitDx=0;exitDy=0;exitPerimeter=0;entryX=0.5;entryY=0;entryDx=0;entryDy=0;" edge="1" parent="1" source="It_J201JycvOayyEyo5P-5" target="It_J201JycvOayyEyo5P-16">
          <mxGeometry relative="1" as="geometry" />
        </mxCell>
        <mxCell id="It_J201JycvOayyEyo5P-5" value="User" style="shape=umlActor;verticalLabelPosition=bottom;verticalAlign=top;html=1;outlineConnect=0;" vertex="1" parent="1">
          <mxGeometry x="120" y="70" width="30" height="60" as="geometry" />
        </mxCell>
        <mxCell id="It_J201JycvOayyEyo5P-12" value="정보 조회하기" style="ellipse;whiteSpace=wrap;html=1;" vertex="1" parent="1">
          <mxGeometry x="557" y="130" width="120" height="80" as="geometry" />
        </mxCell>
        <mxCell id="It_J201JycvOayyEyo5P-14" value="로그인" style="ellipse;whiteSpace=wrap;html=1;" vertex="1" parent="1">
          <mxGeometry x="283" y="130" width="120" height="80" as="geometry" />
        </mxCell>
        <mxCell id="It_J201JycvOayyEyo5P-16" value="로그아웃" style="ellipse;whiteSpace=wrap;html=1;" vertex="1" parent="1">
          <mxGeometry x="413" y="130" width="120" height="80" as="geometry" />
        </mxCell>
        <mxCell id="It_J201JycvOayyEyo5P-19" value="게임 퇴장" style="ellipse;whiteSpace=wrap;html=1;" vertex="1" parent="1">
          <mxGeometry x="354" y="660" width="120" height="80" as="geometry" />
        </mxCell>
        <mxCell id="It_J201JycvOayyEyo5P-23" value="패 확인하기" style="ellipse;whiteSpace=wrap;html=1;" vertex="1" parent="1">
          <mxGeometry x="354" y="560" width="120" height="80" as="geometry" />
        </mxCell>
      </root>
    </mxGraphModel>
  </diagram>
</mxfile>
